{
  "accessors": [
    {
      "bufferView": 2,
      "componentType": 5126,
      "count": 14119,
      "max": [
        73.477432250976562,
        49.761367797851562,
        30.005348205566406
      ],
      "min": [
        -73.477432250976562,
        -49.715019226074219,
        4.3260574340820312
      ],
      "type": "VEC3"
    },
    {
      "bufferView": 2,
      "byteOffset": 169428,
      "componentType": 5126,
      "count": 14119,
      "max": [
        1,
        0.99999439716339111,
        1
      ],
      "min": [
        -1,
        -0.99999880790710449,
        -0.99999874830245972
      ],
      "type": "VEC3"
    },
    {
      "bufferView": 3,
      "componentType": 5126,
      "count": 14119,
      "max": [
        1,
        1,
        0.81375128030776978,
        1
      ],
      "min": [
        -1,
        -1,
        -0.81376945972442627,
        1
      ],
      "type": "VEC4"
    },
    {
      "bufferView": 1,
      "componentType": 5126,
      "count": 14119,
      "max": [
        1.0000003576278687,
        1.0000001192092896
      ],
      "min": [
        0,
        0
      ],
      "type": "VEC2"
    },
    {
      "bufferView": 0,
      "componentType": 5125,
      "count": 81504,
      "max": [
        14118
      ],
      "min": [
        0
      ],
      "type": "SCALAR"
    },
    {
      "bufferView": 2,
      "byteOffset": 338856,
      "componentType": 5126,
      "count": 3927,
      "max": [
        70.205841064453125,
        46.417182922363281,
        4.8317651748657227
      ],
      "min": [
        -70.205841064453125,
        -46.4071044921875,
        -0.0088686700910329819
      ],
      "type": "VEC3"
    },
    {
      "bufferView": 2,
      "byteOffset": 385980,
      "componentType": 5126,
      "count": 3927,
      "max": [
        0.80973988771438599,
        0.97083872556686401,
        -0.081672541797161102
      ],
      "min": [
        -0.81082165241241455,
        -0.98682790994644165,
        -1
      ],
      "type": "VEC3"
    },
    {
      "bufferView": 3,
      "byteOffset": 225904,
      "componentType": 5126,
      "count": 3927,
      "max": [
        1,
        1,
        0.61792737245559692,
        1
      ],
      "min": [
        -1,
        -1,
        -0.54162251949310303,
        1
      ],
      "type": "VEC4"
    },
    {
      "bufferView": 1,
      "byteOffset": 112952,
      "componentType": 5126,
      "count": 3927,
      "max": [
        1.0000003576278687,
        1.0000001192092896
      ],
      "min": [
        0,
        0
      ],
      "type": "VEC2"
    },
    {
      "bufferView": 0,
      "byteOffset": 326016,
      "componentType": 5125,
      "count": 21600,
      "max": [
        3926
      ],
      "min": [
        0
      ],
      "type": "SCALAR"
    }
  ],
  "asset": {
    "extras": {
      "author": "Miguel Ángel Jiménez (https://sketchfab.com/mangel.jimenez)",
      "license": "CC-BY-4.0 (http://creativecommons.org/licenses/by/4.0/)",
      "source": "https://sketchfab.com/models/6a526b42e6a34a4ba12136a40d9a686b",
      "title": "Mattress"
    },
    "generator": "Sketchfab-3.20.7",
    "version": "2.0"
  },
  "bufferViews": [
    {
      "buffer": 0,
      "byteLength": 412416,
      "byteOffset": 0,
      "name": "floatBufferViews",
      "target": 34963
    },
    {
      "buffer": 0,
      "byteLength": 144368,
      "byteOffset": 412416,
      "byteStride": 8,
      "name": "floatBufferViews",
      "target": 34962
    },
    {
      "buffer": 0,
      "byteLength": 433104,
      "byteOffset": 556784,
      "byteStride": 12,
      "name": "floatBufferViews",
      "target": 34962
    },
    {
      "buffer": 0,
      "byteLength": 288736,
      "byteOffset": 989888,
      "byteStride": 16,
      "name": "floatBufferViews",
      "target": 34962
    }
  ],
  "buffers": [
    {
      "byteLength": 1278624,
      "uri": "scene.bin"
    }
  ],
  "images": [
    {
      "uri": "textures/03_-_Default_baseColor.jpg"
    },
    {
      "uri": "textures/07_-_Default_baseColor.jpg"
    },
    {
      "uri": "textures/07_-_Default_normal.jpg"
    },
    {
      "uri": "textures/07_-_Default_metallicRoughness.png"
    }
  ],
  "materials": [
    {
      "doubleSided": true,
      "emissiveFactor": [
        0,
        0,
        0
      ],
      "name": "03_-_Default",
      "pbrMetallicRoughness": {
        "baseColorFactor": [
          1,
          1,
          1,
          1
        ],
        "baseColorTexture": {
          "index": 0,
          "texCoord": 0
        },
        "metallicFactor": 0.4712271341,
        "roughnessFactor": 0.60804115850000007
      }
    },
    {
      "doubleSided": true,
      "name": "07_-_Default",
      "normalTexture": {
        "index": 2,
        "scale": 0.84999999999999998,
        "texCoord": 0
      },
      "pbrMetallicRoughness": {
        "baseColorFactor": [
          1,
          1,
          1,
          1
        ],
        "baseColorTexture": {
          "index": 1,
          "texCoord": 0
        },
        "metallicFactor": 0.69683689019999995,
        "metallicRoughnessTexture": {
          "index": 3,
          "texCoord": 0
        },
        "roughnessFactor": 0.87976371949999999
      }
    }
  ],
  "meshes": [
    {
      "name": "Box001_03 - Default_0",
      "primitives": [
        {
          "attributes": {
            "NORMAL": 1,
            "POSITION": 0,
            "TANGENT": 2,
            "TEXCOORD_0": 3
          },
          "indices": 4,
          "material": 0,
          "mode": 4
        }
      ]
    },
    {
      "name": "Object001_07 - Default_0",
      "primitives": [
        {
          "attributes": {
            "NORMAL": 6,
            "POSITION": 5,
            "TANGENT": 7,
            "TEXCOORD_0": 8
          },
          "indices": 9,
          "material": 1,
          "mode": 4
        }
      ]
    }
  ],
  "nodes": [
    {
      "children": [
        1
      ],
      "name": "RootNode (gltf orientation matrix)",
      "rotation": [
        -0.70710678118654746,
        -0,
        -0,
        0.70710678118654757
      ]
    },
    {
      "children": [
        2
      ],
      "name": "RootNode (model correction matrix)"
    },
    {
      "children": [
        3
      ],
      "matrix": [
        1,
        0,
        0,
        0,
        0,
        0,
        1,
        0,
        0,
        -1,
        0,
        0,
        0,
        0,
        0,
        1
      ],
      "name": "15f7fcaead9049f4aeac25f5ce707805.fbx"
    },
    {
      "children": [
        4,
        6
      ],
      "name": "RootNode"
    },
    {
      "children": [
        5
      ],
      "matrix": [
        1,
        0,
        0,
        0,
        0,
        -3.2584136966384847e-07,
        0.99999999999994693,
        0,
        0,
        -0.99999999999994693,
        -3.2584136966384847e-07,
        0,
        0,
        30,
        1.3113416343912832e-06,
        1
      ],
      "name": "Box001"
    },
    {
      "mesh": 0,
      "name": "Box001_03 - Default_0"
    },
    {
      "children": [
        7
      ],
      "matrix": [
        1,
        0,
        0,
        0,
        0,
        -3.8941436786288364e-07,
        0.99999999999992428,
        0,
        0,
        -0.99999999999992428,
        -3.8941436786288364e-07,
        0,
        0,
        30,
        1.3113416343912832e-06,
        1
      ],
      "name": "Object001"
    },
    {
      "mesh": 1,
      "name": "Object001_07 - Default_0"
    }
  ],
  "samplers": [
    {
      "magFilter": 9729,
      "minFilter": 9987,
      "wrapS": 10497,
      "wrapT": 10497
    }
  ],
  "scene": 0,
  "scenes": [
    {
      "name": "OSG_Scene",
      "nodes": [
        0
      ]
    }
  ],
  "textures": [
    {
      "sampler": 0,
      "source": 0
    },
    {
      "sampler": 0,
      "source": 1
    },
    {
      "sampler": 0,
      "source": 2
    },
    {
      "sampler": 0,
      "source": 3
    }
  ]
}

