{"asset":{"version":"2.0","generator":"babylon.js glTF exporter for Maya 2018 v20210107.7"},"scene":0,"scenes":[{"nodes":[0,1,2,3,4,5]}],"nodes":[{"mesh":0,"translation":[2.649038E-18,0.00747060357,0.0],"rotation":[0.0,0.0,1.0,6.123234E-17],"scale":[0.75,0.75,1.5],"name":"pPlane1"},{"mesh":1,"translation":[-0.003754345,0.00375439436,0.0],"rotation":[0.0,0.0,-0.707106769,0.707106769],"scale":[0.75,0.75,1.5],"name":"pPlane2"},{"mesh":2,"scale":[0.75,0.75,1.5],"name":"pPlane3"},{"mesh":3,"translation":[0.00375,0.00375,0.0],"rotation":[0.0,0.0,0.707106769,0.707106769],"scale":[0.75,0.75,1.5],"name":"pPlane4"},{"mesh":4,"translation":[0.0,0.00375,0.0075],"rotation":[-0.707106769,0.0,0.0,0.707106769],"scale":[0.75,0.75,0.75],"name":"pPlane5"},{"mesh":5,"translation":[0.0,0.00375,-0.0075],"rotation":[0.707106769,0.0,0.0,0.707106769],"scale":[0.75,0.75,0.75],"name":"pPlane6"}],"meshes":[{"primitives":[{"attributes":{"POSITION":1,"TANGENT":2,"NORMAL":3,"TEXCOORD_0":4},"indices":0,"material":0}],"name":"pPlane1"},{"primitives":[{"attributes":{"POSITION":6,"TANGENT":7,"NORMAL":8,"TEXCOORD_0":9},"indices":5,"material":1}],"name":"pPlane2"},{"primitives":[{"attributes":{"POSITION":11,"TANGENT":12,"NORMAL":13,"TEXCOORD_0":14},"indices":10,"material":0}],"name":"pPlane3"},{"primitives":[{"attributes":{"POSITION":16,"TANGENT":17,"NORMAL":18,"TEXCOORD_0":19},"indices":15,"material":1}],"name":"pPlane4"},{"primitives":[{"attributes":{"POSITION":21,"TANGENT":22,"NORMAL":23,"TEXCOORD_0":24},"indices":20,"material":1}],"name":"pPlane5"},{"primitives":[{"attributes":{"POSITION":26,"TANGENT":27,"NORMAL":28,"TEXCOORD_0":29},"indices":25,"material":1}],"name":"pPlane6"}],"accessors":[{"bufferView":0,"componentType":5123,"count":600,"type":"SCALAR","name":"accessorIndices"},{"bufferView":1,"componentType":5126,"count":121,"max":[0.005,0.0,0.005],"min":[-0.005,0.0,-0.005],"type":"VEC3","name":"accessorPositions"},{"bufferView":2,"componentType":5126,"count":121,"type":"VEC4","name":"accessorTangents"},{"bufferView":1,"byteOffset":1452,"componentType":5126,"count":121,"type":"VEC3","name":"accessorNormals"},{"bufferView":3,"componentType":5126,"count":121,"type":"VEC2","name":"accessorUVs"},{"bufferView":0,"byteOffset":1200,"componentType":5123,"count":600,"type":"SCALAR","name":"accessorIndices"},{"bufferView":1,"byteOffset":2904,"componentType":5126,"count":121,"max":[0.005,0.0,0.005],"min":[-0.005,0.0,-0.005],"type":"VEC3","name":"accessorPositions"},{"bufferView":2,"byteOffset":1936,"componentType":5126,"count":121,"type":"VEC4","name":"accessorTangents"},{"bufferView":1,"byteOffset":4356,"componentType":5126,"count":121,"type":"VEC3","name":"accessorNormals"},{"bufferView":3,"byteOffset":968,"componentType":5126,"count":121,"type":"VEC2","name":"accessorUVs"},{"bufferView":0,"byteOffset":2400,"componentType":5123,"count":600,"type":"SCALAR","name":"accessorIndices"},{"bufferView":1,"byteOffset":5808,"componentType":5126,"count":121,"max":[0.005,0.0,0.005],"min":[-0.005,0.0,-0.005],"type":"VEC3","name":"accessorPositions"},{"bufferView":2,"byteOffset":3872,"componentType":5126,"count":121,"type":"VEC4","name":"accessorTangents"},{"bufferView":1,"byteOffset":7260,"componentType":5126,"count":121,"type":"VEC3","name":"accessorNormals"},{"bufferView":3,"byteOffset":1936,"componentType":5126,"count":121,"type":"VEC2","name":"accessorUVs"},{"bufferView":0,"byteOffset":3600,"componentType":5123,"count":600,"type":"SCALAR","name":"accessorIndices"},{"bufferView":1,"byteOffset":8712,"componentType":5126,"count":121,"max":[0.005,0.0,0.005],"min":[-0.005,0.0,-0.005],"type":"VEC3","name":"accessorPositions"},{"bufferView":2,"byteOffset":5808,"componentType":5126,"count":121,"type":"VEC4","name":"accessorTangents"},{"bufferView":1,"byteOffset":10164,"componentType":5126,"count":121,"type":"VEC3","name":"accessorNormals"},{"bufferView":3,"byteOffset":2904,"componentType":5126,"count":121,"type":"VEC2","name":"accessorUVs"},{"bufferView":0,"byteOffset":4800,"componentType":5123,"count":600,"type":"SCALAR","name":"accessorIndices"},{"bufferView":1,"byteOffset":11616,"componentType":5126,"count":121,"max":[0.005,0.0,0.005],"min":[-0.005,0.0,-0.005],"type":"VEC3","name":"accessorPositions"},{"bufferView":2,"byteOffset":7744,"componentType":5126,"count":121,"type":"VEC4","name":"accessorTangents"},{"bufferView":1,"byteOffset":13068,"componentType":5126,"count":121,"type":"VEC3","name":"accessorNormals"},{"bufferView":3,"byteOffset":3872,"componentType":5126,"count":121,"type":"VEC2","name":"accessorUVs"},{"bufferView":0,"byteOffset":6000,"componentType":5123,"count":600,"type":"SCALAR","name":"accessorIndices"},{"bufferView":1,"byteOffset":14520,"componentType":5126,"count":121,"max":[0.005,0.0,0.005],"min":[-0.005,0.0,-0.005],"type":"VEC3","name":"accessorPositions"},{"bufferView":2,"byteOffset":9680,"componentType":5126,"count":121,"type":"VEC4","name":"accessorTangents"},{"bufferView":1,"byteOffset":15972,"componentType":5126,"count":121,"type":"VEC3","name":"accessorNormals"},{"bufferView":3,"byteOffset":4840,"componentType":5126,"count":121,"type":"VEC2","name":"accessorUVs"}],"bufferViews":[{"buffer":0,"byteLength":7200,"name":"bufferViewScalar"},{"buffer":0,"byteOffset":7200,"byteLength":17424,"byteStride":12,"name":"bufferViewFloatVec3"},{"buffer":0,"byteOffset":24624,"byteLength":11616,"byteStride":16,"name":"bufferViewFloatVec4"},{"buffer":0,"byteOffset":36240,"byteLength":5808,"byteStride":8,"name":"bufferViewFloatVec2"}],"buffers":[{"uri":"kamer.bin","byteLength":42048}],"materials":[{"pbrMetallicRoughness":{"baseColorTexture":{"index":0},"metallicFactor":0.0,"roughnessFactor":0.450053632},"name":"lambert3"},{"pbrMetallicRoughness":{"baseColorTexture":{"index":1},"metallicFactor":0.0,"roughnessFactor":0.450053632},"name":"lambert1"}],"textures":[{"sampler":0,"source":0,"name":"betonnen-vloer.jpeg"},{"sampler":0,"source":1,"name":"wit-geschilderde-mooie-bakstenen-muur_53876-42933.jpg"}],"images":[{"uri":"betonnen-vloer.jpeg"},{"uri":"wit-geschilderde-mooie-bakstenen-muur_53876-42933.jpg"}],"samplers":[{"magFilter":9729,"minFilter":9987}]}