{
  "accessors": [
    {
      "bufferView": 2,
      "componentType": 5126,
      "count": 11706,
      "max": [
        7.4776425361633301,
        6.7983589172363281,
        37.652519226074219
      ],
      "min": [
        -5.6837754249572754,
        -6.586247444152832,
        1.3230781555175781
      ],
      "type": "VEC3"
    },
    {
      "bufferView": 2,
      "byteOffset": 140472,
      "componentType": 5126,
      "count": 11706,
      "max": [
        0.99999707937240601,
        0.99999815225601196,
        0.99996685981750488
      ],
      "min": [
        -0.99999547004699707,
        -0.99999594688415527,
        -0.9999614953994751
      ],
      "type": "VEC3"
    },
    {
      "bufferView": 1,
      "componentType": 5126,
      "count": 11706,
      "max": [
        0.99975597858428955,
        0.9978029727935791
      ],
      "min": [
        0.00024399999529123306,
        0.00024399999529123306
      ],
      "type": "VEC2"
    },
    {
      "bufferView": 0,
      "componentType": 5125,
      "count": 60000,
      "max": [
        11705
      ],
      "min": [
        0
      ],
      "type": "SCALAR"
    }
  ],
  "asset": {
    "extras": {
      "author": "Austin Beaulier (https://sketchfab.com/Austin.Beaulier)",
      "license": "CC-BY-4.0 (http://creativecommons.org/licenses/by/4.0/)",
      "source": "https://sketchfab.com/3d-models/citadel-colour-spray-paint-can-scan-f8c6f7016fde4bee97c59083a6870ae5",
      "title": "Citadel Colour Spray Paint Can Scan"
    },
    "generator": "Sketchfab-9.47.0",
    "version": "2.0"
  },
  "bufferViews": [
    {
      "buffer": 0,
      "byteLength": 240000,
      "byteOffset": 0,
      "name": "floatBufferViews",
      "target": 34963
    },
    {
      "buffer": 0,
      "byteLength": 93648,
      "byteOffset": 240000,
      "byteStride": 8,
      "name": "floatBufferViews",
      "target": 34962
    },
    {
      "buffer": 0,
      "byteLength": 280944,
      "byteOffset": 333648,
      "byteStride": 12,
      "name": "floatBufferViews",
      "target": 34962
    }
  ],
  "buffers": [
    {
      "byteLength": 614592,
      "uri": "scene.bin"
    }
  ],
  "images": [
    {
      "uri": "textures/model_Material_u1_v1_baseColor.jpeg"
    }
  ],
  "materials": [
    {
      "doubleSided": true,
      "emissiveFactor": [
        0,
        0,
        0
      ],
      "name": "model_Material_u1_v1",
      "pbrMetallicRoughness": {
        "baseColorFactor": [
          1,
          1,
          1,
          1
        ],
        "baseColorTexture": {
          "index": 0,
          "texCoord": 0
        },
        "metallicFactor": 0,
        "roughnessFactor": 1
      }
    }
  ],
  "meshes": [
    {
      "primitives": [
        {
          "attributes": {
            "NORMAL": 1,
            "POSITION": 0,
            "TEXCOORD_0": 2
          },
          "indices": 3,
          "material": 0,
          "mode": 4
        }
      ]
    }
  ],
  "nodes": [
    {
      "children": [
        1
      ],
      "name": "RootNode (gltf orientation matrix)",
      "rotation": [
        -0.70710678118654746,
        -0,
        -0,
        0.70710678118654757
      ]
    },
    {
      "children": [
        2
      ],
      "matrix": [
        0.073894496403098309,
        0.054931466993598743,
        0.00097179744357459019,
        0,
        -0.054907927152854086,
        0.073895418457946782,
        -0.0018420803530169172,
        0,
        -0.0018787872604872635,
        0.00089878179647815554,
        0.092056880340928515,
        0,
        0.52572250366210938,
        -0.69510328769683838,
        0.012033109553158283,
        1
      ],
      "name": "RootNode (model correction matrix)"
    },
    {
      "children": [
        3
      ],
      "name": "model.obj.cleaner.materialmerger.gles"
    },
    {
      "mesh": 0,
      "name": ""
    }
  ],
  "samplers": [
    {
      "magFilter": 9729,
      "minFilter": 9987,
      "wrapS": 10497,
      "wrapT": 10497
    }
  ],
  "scene": 0,
  "scenes": [
    {
      "name": "OSG_Scene",
      "nodes": [
        0
      ]
    }
  ],
  "textures": [
    {
      "sampler": 0,
      "source": 0
    }
  ]
}

