{
  "accessors": [
    {
      "bufferView": 2,
      "componentType": 5126,
      "count": 2422,
      "max": [
        0.7910117506980896,
        2.0000002384185791,
        0.79101163148880005
      ],
      "min": [
        -0.79101169109344482,
        0,
        -0.79101186990737915
      ],
      "type": "VEC3"
    },
    {
      "bufferView": 2,
      "byteOffset": 29064,
      "componentType": 5126,
      "count": 2422,
      "max": [
        1,
        0.4536769688129425,
        1
      ],
      "min": [
        -1,
        -0.42007008194923401,
        -1
      ],
      "type": "VEC3"
    },
    {
      "bufferView": 1,
      "componentType": 5126,
      "count": 2422,
      "max": [
        0.99094611406326294,
        0.98147875070571899
      ],
      "min": [
        0.0067269490100443363,
        0.027444124221801758
      ],
      "type": "VEC2"
    },
    {
      "bufferView": 0,
      "componentType": 5125,
      "count": 9984,
      "max": [
        2421
      ],
      "min": [
        0
      ],
      "type": "SCALAR"
    },
    {
      "bufferView": 2,
      "byteOffset": 58128,
      "componentType": 5126,
      "count": 1794,
      "max": [
        0.79004883766174316,
        2.0626614093780518,
        0.79004865884780884
      ],
      "min": [
        -0.79004883766174316,
        -0.012114424258470535,
        -0.79004883766174316
      ],
      "type": "VEC3"
    },
    {
      "bufferView": 2,
      "byteOffset": 79656,
      "componentType": 5126,
      "count": 1794,
      "max": [
        0.99996507167816162,
        1,
        0.99996507167816162
      ],
      "min": [
        -0.99996507167816162,
        -1,
        -0.99996507167816162
      ],
      "type": "VEC3"
    },
    {
      "bufferView": 1,
      "byteOffset": 19376,
      "componentType": 5126,
      "count": 1794,
      "max": [
        0,
        1
      ],
      "min": [
        0,
        1
      ],
      "type": "VEC2"
    },
    {
      "bufferView": 0,
      "byteOffset": 39936,
      "componentType": 5125,
      "count": 10368,
      "max": [
        1793
      ],
      "min": [
        0
      ],
      "type": "SCALAR"
    }
  ],
  "asset": {
    "extras": {
      "author": "AdityaGirgit (https://sketchfab.com/AdityaGirgit)",
      "license": "CC-BY-SA-4.0 (http://creativecommons.org/licenses/by-sa/4.0/)",
      "source": "https://sketchfab.com/3d-models/paint-drum-7adb222dfbc54d349e8def004f791fde",
      "title": "Paint drum"
    },
    "generator": "Sketchfab-8.64.0",
    "version": "2.0"
  },
  "bufferViews": [
    {
      "buffer": 0,
      "byteLength": 81408,
      "byteOffset": 0,
      "name": "floatBufferViews",
      "target": 34963
    },
    {
      "buffer": 0,
      "byteLength": 33728,
      "byteOffset": 81408,
      "byteStride": 8,
      "name": "floatBufferViews",
      "target": 34962
    },
    {
      "buffer": 0,
      "byteLength": 101184,
      "byteOffset": 115136,
      "byteStride": 12,
      "name": "floatBufferViews",
      "target": 34962
    }
  ],
  "buffers": [
    {
      "byteLength": 216320,
      "uri": "scene.bin"
    }
  ],
  "images": [
    {
      "uri": "textures/drum_baseColor.jpeg"
    }
  ],
  "materials": [
    {
      "doubleSided": false,
      "name": "drum",
      "pbrMetallicRoughness": {
        "baseColorFactor": [
          1,
          1,
          1,
          1
        ],
        "baseColorTexture": {
          "index": 0,
          "texCoord": 0
        },
        "metallicFactor": 0,
        "roughnessFactor": 0.2570773215621181
      }
    },
    {
      "doubleSided": false,
      "name": "silver",
      "pbrMetallicRoughness": {
        "baseColorFactor": [
          1,
          1,
          1,
          1
        ],
        "metallicFactor": 1,
        "roughnessFactor": 0.10000000000000001
      }
    }
  ],
  "meshes": [
    {
      "primitives": [
        {
          "attributes": {
            "NORMAL": 1,
            "POSITION": 0,
            "TEXCOORD_0": 2
          },
          "indices": 3,
          "material": 0,
          "mode": 4
        }
      ]
    },
    {
      "primitives": [
        {
          "attributes": {
            "NORMAL": 5,
            "POSITION": 4,
            "TEXCOORD_0": 6
          },
          "indices": 7,
          "material": 1,
          "mode": 4
        }
      ]
    }
  ],
  "nodes": [
    {
      "children": [
        1
      ],
      "name": "RootNode (gltf orientation matrix)",
      "rotation": [
        -0.70710678118654746,
        -0,
        -0,
        0.70710678118654757
      ]
    },
    {
      "children": [
        2
      ],
      "matrix": [
        0.91162043809890747,
        0,
        0,
        0,
        0,
        0.91162043809890747,
        0,
        0,
        0,
        0,
        0.91162043809890747,
        0,
        0,
        1.1102230246251565e-16,
        0,
        1
      ],
      "name": "RootNode (model correction matrix)"
    },
    {
      "children": [
        3
      ],
      "name": "root"
    },
    {
      "children": [
        4,
        6
      ],
      "matrix": [
        1,
        0,
        0,
        0,
        0,
        2.2204460492503131e-16,
        1,
        0,
        0,
        -1,
        2.2204460492503131e-16,
        0,
        0,
        0,
        0,
        1
      ],
      "name": "GLTF_SceneRootNode"
    },
    {
      "children": [
        5
      ],
      "name": "drum_0"
    },
    {
      "mesh": 0,
      "name": ""
    },
    {
      "children": [
        7
      ],
      "name": "rim_1"
    },
    {
      "mesh": 1,
      "name": ""
    }
  ],
  "samplers": [
    {
      "magFilter": 9729,
      "minFilter": 9987,
      "wrapS": 10497,
      "wrapT": 10497
    }
  ],
  "scene": 0,
  "scenes": [
    {
      "name": "OSG_Scene",
      "nodes": [
        0
      ]
    }
  ],
  "textures": [
    {
      "sampler": 0,
      "source": 0
    }
  ]
}

